<svg width="16" height="16" viewBox="0 0 16 16" fill="none" xmlns="http://www.w3.org/2000/svg">
    <style>
        @media (prefers-color-scheme: dark) {
            .a { fill: black }
            .b { fill: #5b1c05 }
            .c { fill: #521a05 }
            .d { fill: #210d0d }
            .e { fill: #424345 }
            .f { fill: #045d2b }
            .g { fill: #0c759c }
            .h { fill: #390d57 }
    
            @media (color-gamut: p3) {
                .a { fill: oklch(55% 0.23 146) }
                .b { fill: oklch(32.35% 0.098 38.55) }
                .c { fill: oklch(30.36% 0.089 39.26) }
                .d { fill: oklch(18.98% 0.034 20.8) }
                .e { fill: oklch(38.26% 0.004 264.52) }
                .f { fill: oklch(41.93% 0.111 151.04) }
                .g { fill: oklch(52.81% 0.104 231.14) }
                .h { fill: oklch(28.02% 0.124 306.78) }
            }
        }
    </style>
<g clip-path="url(#clip0_502_377)">
<path class="a" d="M15.8379 4.09567C15.7085 3.78859 15.5038 3.5741 15.2614 3.49186C15.0474 3.41932 14.8154 3.45277 14.6158 3.57984C14.6265 3.52791 14.6365 3.47665 14.6457 3.42619C14.7285 2.97232 14.7471 2.58728 14.7025 2.24921C14.6473 1.83094 14.4918 1.49107 14.2525 1.26634C14.0704 1.09522 13.8281 1.03224 13.588 1.09375C13.3305 1.15965 13.1088 1.35724 12.9638 1.65025C12.905 1.76898 12.8563 1.88659 12.8149 2.00521C12.8113 1.96916 12.8074 1.93368 12.8034 1.89865C12.748 1.4192 12.6571 1.04058 12.5256 0.741155C12.3628 0.370308 12.1335 0.126757 11.8625 0.0369737C11.6221 -0.0426705 11.3735 0.00757179 11.1625 0.17835C10.9334 0.363774 10.774 0.670185 10.7135 1.04137C10.6759 1.27231 10.6633 1.49513 10.6679 1.71615C10.5538 1.5091 10.4362 1.34305 10.3131 1.21451C10.042 0.93131 9.7384 0.833755 9.43515 0.932435C9.20545 1.00723 9.0098 1.21485 8.8844 1.51698C8.7462 1.85009 8.7061 2.26701 8.77455 2.66073C8.89475 3.35263 9.0983 3.72607 9.3561 4.19898C9.5005 4.46393 9.6689 4.77293 9.8645 5.21815C9.7963 5.2348 9.72875 5.25385 9.66285 5.27535C9.10015 5.45855 8.60535 5.87805 8.2698 6.4565C8.15885 6.6478 8.06865 6.8501 8.0001 7.0611C7.9315 6.8502 7.8413 6.6478 7.73035 6.4565C7.39475 5.87805 6.9 5.45865 6.3373 5.27535C6.2714 5.25395 6.2038 5.2348 6.13565 5.21815C6.33125 4.77293 6.49965 4.46382 6.64405 4.19898C6.90175 3.72607 7.1054 3.35263 7.2256 2.66073C7.29405 2.26701 7.254 1.85009 7.11575 1.51698C6.99035 1.21485 6.7948 1.00723 6.565 0.932435C6.26175 0.833755 5.9581 0.93131 5.68705 1.21451C5.564 1.34305 5.44645 1.5091 5.33225 1.71615C5.33685 1.49513 5.32425 1.27231 5.2866 1.04137C5.2261 0.670295 5.06665 0.363774 4.83767 0.17835C4.62666 0.00745915 4.37802 -0.0427832 4.13765 0.0369737C3.86657 0.126757 3.63724 0.370308 3.47452 0.741155C3.34304 1.0407 3.25218 1.41932 3.19674 1.89865C3.19271 1.93357 3.18884 1.96916 3.18519 2.00521C3.1439 1.88659 3.09515 1.76898 3.03638 1.65025C2.89129 1.35724 2.66964 1.15965 2.41217 1.09375C2.17196 1.03235 1.92978 1.09522 1.74766 1.26634C1.50836 1.49119 1.35279 1.83105 1.29758 2.24921C1.25295 2.58728 1.27158 2.97232 1.35446 3.42619C1.36366 3.47665 1.37362 3.5278 1.38434 3.57984C1.18482 3.45266 0.95275 3.4192 0.738775 3.49186C0.496359 3.5741 0.291585 3.78859 0.162242 4.09567C0.0318345 4.40467 -0.0202524 4.73283 0.00704566 5.071C0.0316825 5.37585 0.118671 5.6754 0.273031 5.98695C0.511185 6.46745 0.91032 6.9792 1.5673 7.646C1.56775 7.64645 1.56821 7.6469 1.56874 7.64745C1.56912 7.6479 1.56958 7.64835 1.57003 7.6488L1.57574 7.65455C1.57726 7.656 1.57878 7.6576 1.57999 7.6588C1.70812 7.79345 1.97547 8.19765 2.1033 9.03035C2.29005 10.2475 2.37362 11.2027 2.21082 13.2494C2.175 13.6994 2.10147 14.2024 2.23142 14.6812C2.38198 15.2357 2.73633 15.5967 3.31468 15.785C3.61321 15.8822 3.86323 15.9309 4.07629 15.9309C4.30106 15.9309 4.48455 15.8767 4.64028 15.7683C4.95934 15.5459 5.0938 15.1496 5.21245 14.7999C5.23695 14.7278 5.2623 14.6531 5.2889 14.5807C5.5294 13.9262 5.5606 13.9044 5.83085 13.7683C6.3184 13.5654 6.79075 13.2174 7.1618 12.7872C7.61145 12.2659 7.901 11.6408 7.9991 10.9795C7.9994 10.9772 7.9997 10.9751 8 10.9728C8.0003 10.9751 8.0006 10.9772 8.0009 10.9795C8.099 11.6408 8.3885 12.2659 8.8382 12.7872C9.20935 13.2174 9.6816 13.5654 10.1692 13.7683C10.4393 13.9044 10.4706 13.9263 10.7111 14.5807C10.7377 14.6531 10.763 14.7277 10.7875 14.7999C10.9062 15.1496 11.0406 15.5459 11.3597 15.7683C11.5154 15.8767 11.6989 15.9309 11.9237 15.9309C12.1367 15.9309 12.3868 15.8822 12.6853 15.785C13.2637 15.5967 13.618 15.2357 13.7686 14.6812C13.8986 14.2025 13.825 13.6995 13.7892 13.2494C13.6264 11.2027 13.7099 10.2474 13.8967 9.03035C14.0244 8.19765 14.2919 7.79345 14.42 7.6588C14.4212 7.6576 14.4227 7.6561 14.4242 7.65455L14.4299 7.6488C14.4304 7.64835 14.4309 7.6479 14.4312 7.64745C14.4317 7.647 14.4321 7.64655 14.4327 7.646C15.0897 6.9791 15.4888 6.46745 15.7269 5.98695C15.8813 5.6755 15.9683 5.37585 15.9929 5.071C16.0202 4.73283 15.968 4.40467 15.8379 4.09567Z" fill="white"/>
<path class="b" d="M7.2348 9.4867C6.91765 9.38355 6.72245 9.736 6.63225 10.1941L6.2783 7.69645C6.49595 7.99455 6.5341 8.2381 6.7734 8.67245C6.8652 8.8391 6.98645 8.9338 7.1326 8.98135C7.38995 9.0652 7.65935 8.8355 7.7458 8.2525C7.9 7.21275 7.25475 6.0397 6.23385 5.7074C5.9887 5.62765 5.7232 5.58435 5.5033 5.58605C6.22145 3.66739 6.6589 3.53548 6.8498 2.4368C6.93125 1.96839 6.77425 1.46631 6.4614 1.36459C5.6063 1.08622 5.0314 3.13602 4.5139 5.52715C4.52424 5.23405 4.53062 4.85023 4.54697 4.61445C4.66399 2.93009 5.0674 2.04466 4.90945 1.07642C4.83281 0.606215 4.50295 0.364918 4.19042 0.468557C3.44045 0.717065 3.39034 2.62064 3.53025 4.70581C3.54903 4.98586 3.57617 5.6462 3.60111 5.93945C3.52964 5.6764 3.41239 5.0956 3.36152 4.87794C2.9871 3.27819 3.06793 2.58076 2.71906 1.87602C2.52599 1.48602 2.12839 1.42711 1.91495 1.62751C1.26595 2.23718 1.7453 3.85631 2.46691 5.6585C2.54782 5.8606 2.73274 6.2882 2.82034 6.49615C2.71913 6.3529 2.50288 5.9997 2.41985 5.87275C1.6241 4.65737 1.64743 4.37113 1.29826 4.045C1.05486 3.81767 0.63847 3.82319 0.442517 4.28821C0.0942565 5.11505 0.61178 5.9629 1.74553 7.11385C1.74553 7.11385 1.74598 7.1143 1.74621 7.1145C1.75176 7.12015 1.75747 7.1258 1.76302 7.1315C2.16937 7.55845 2.2775 7.8847 2.42075 8.92145C2.56972 9.9995 2.63603 10.9838 2.59489 12.6167C2.56964 13.6182 2.09493 14.7576 3.36631 15.1715C4.63776 15.5854 4.67381 14.9739 4.94572 14.2339C5.21765 13.494 5.3083 13.3624 5.69805 13.166C6.5482 12.816 7.4478 11.9369 7.62035 10.7737C7.7417 9.9551 7.5476 9.58855 7.2348 9.4867Z" fill="#C18874"/>
<path class="c" d="M4.59327 12.2774C5.4787 12.5656 6.34285 11.8122 6.56345 10.3251C6.581 10.2067 6.5935 10.09 6.60125 9.97524L6.38255 8.43169C6.1587 7.87634 5.7849 7.47809 5.3272 7.32909C4.4418 7.04079 3.57762 7.79419 3.35703 9.28129C3.13644 10.7684 3.70787 11.9892 4.59327 12.2774Z" fill="#AF7766"/>
<path class="a" d="M6.08239 7.76834C6.25764 7.61434 6.39279 7.33949 6.33134 7.02689C6.31269 6.92979 6.27524 6.83934 6.22369 6.76959C6.21034 6.75189 6.22474 6.71914 6.24109 6.73029C6.40639 6.83594 6.48829 7.12984 6.45544 7.38489C6.42659 7.63859 6.29834 7.86634 6.12689 7.92019C6.06414 7.94299 6.02879 7.81994 6.08239 7.76834Z" fill="white"/>
<path class="d" d="M5.32175 6.96822C5.3713 6.81627 5.38545 6.64017 5.3592 6.47547C5.33255 6.31212 5.2713 6.14056 5.1676 6.05956C5.1603 6.05426 5.15725 6.04121 5.16085 6.03041C5.1642 6.02001 5.1718 6.01656 5.1788 6.01881C5.2047 6.02261 5.23005 6.03526 5.25375 6.05146C5.35695 6.12716 5.43025 6.26921 5.4712 6.42751C5.52545 6.63556 5.51965 6.89072 5.406 7.05272C5.3652 7.11522 5.29775 7.04652 5.32175 6.96822Z" fill="#E4F7FE"/>
<path class="a" d="M6.67339 9.95806C6.87599 8.59161 6.32249 7.25026 5.43704 6.96211C4.55159 6.67391 3.66954 7.54806 3.46691 8.91451C3.26429 10.281 3.81783 11.6223 4.70327 11.9105C5.5887 12.1986 6.47074 11.3245 6.67339 9.95806Z" fill="white"/>
<path class="d" d="M4.91964 11.6053C4.11081 11.342 3.58888 10.227 3.79038 8.86859C3.99189 7.51014 4.78125 6.82204 5.59 7.08529C5.7398 7.13409 5.8798 7.21214 6.00715 7.31544C5.83905 7.15144 5.64705 7.03079 5.4373 6.96254C4.55192 6.67424 3.68773 7.42764 3.46714 8.91474C3.24655 10.4018 3.81798 11.6225 4.70339 11.9107C5.48705 12.1659 6.25405 11.6048 6.5729 10.4414C6.2551 11.3824 5.5942 11.8248 4.91964 11.6053Z" fill="#E4F7FE"/>
<path class="d" d="M3.61728 8.76221C3.30544 8.83146 3.02699 8.33481 3.14371 7.89401C3.15854 7.83641 3.18066 7.78316 3.20872 7.73831C3.22089 7.71846 3.24264 7.73921 3.23541 7.76376C3.20743 7.85851 3.198 7.96386 3.20758 8.06376C3.23724 8.38641 3.43608 8.55616 3.63842 8.59131C3.70214 8.60676 3.70252 8.74011 3.63941 8.75691L3.61728 8.76221Z" fill="#E4F7FE"/>
<path class="d" d="M4.29656 7.44991C4.02996 7.39236 3.89271 6.83436 4.01711 6.50466C4.02586 6.48226 4.0365 6.46126 4.04852 6.44301C4.05407 6.43221 4.06471 6.42916 4.07156 6.43931C4.07612 6.44586 4.07711 6.45576 4.07467 6.46386C4.06289 6.50251 4.05627 6.54496 4.05369 6.58811C4.0457 6.71746 4.06737 6.85036 4.106 6.96526C4.14433 7.07906 4.2025 7.17751 4.27344 7.24836C4.29686 7.27156 4.3215 7.29186 4.34689 7.30956C4.39951 7.34751 4.37609 7.46421 4.31846 7.45421L4.29656 7.44991Z" fill="#E4F7FE"/>
<path class="d" d="M3.56956 10.0556L2.94977 10.0911C2.91517 10.0925 2.90772 10.0196 2.9411 10.0059L3.54044 9.76915C3.59291 9.7484 3.64682 9.7946 3.66081 9.87245C3.67761 9.9612 3.63161 10.0531 3.56956 10.0556Z" fill="#E4F7FE"/>
<path class="c" d="M2.41992 5.87295C2.03706 5.28815 1.84385 4.91845 1.70751 4.65597C1.7069 4.65473 1.70622 4.6535 1.70561 4.65226C1.68333 4.60979 1.46897 4.21371 1.27583 4.31149C1.17828 4.36094 1.13121 4.5066 1.17767 4.74125C1.34077 5.5643 2.8205 6.49635 2.8205 6.49635C2.71929 6.35305 2.50296 5.9999 2.41992 5.87295Z" fill="#AF7766"/>
<g opacity="0.5">
<path class="e" d="M3.60056 5.92281L3.59927 5.91574C3.59943 5.91765 3.5996 5.91935 3.59976 5.92127L3.60056 5.92281Z" fill="#58595B"/>
</g>
<path class="c" d="M4.90763 2.08282C4.89896 1.86056 4.86018 1.58456 4.72985 1.46459C4.61731 1.36106 4.48127 1.41029 4.36166 1.6695C3.942 2.57916 4.51397 5.5271 4.51397 5.5271C4.52431 5.234 4.5307 4.8502 4.54705 4.61442C4.62377 3.50988 4.82368 2.74892 4.90763 2.08282Z" fill="#AF7766"/>
<path class="c" d="M5.5033 5.58624C5.13965 5.58204 4.74707 5.64325 4.74707 5.64325C4.74707 5.64325 5.5363 4.67207 5.5033 5.58624Z" fill="#AF7766"/>
<path class="c" d="M4.17345 15.2983C2.9334 15.2609 3.09665 14.2451 2.91956 11.722C2.74246 9.19891 2.25398 8.00166 2.25391 8.00156C2.31672 8.23506 2.36622 8.52681 2.42074 8.92176C2.5697 9.99986 2.63601 10.9841 2.59487 12.6171C2.56962 13.6186 2.09491 14.758 3.36629 15.1719C3.72071 15.2873 3.97916 15.3228 4.17345 15.2983Z" fill="#AF7766"/>
<path class="c" d="M4.67085 14.084C4.58029 14.8274 4.48311 15.2609 4.1734 15.2983C4.67618 15.2347 4.74963 14.7679 4.94574 14.2343C5.21765 13.4944 5.3083 13.3627 5.69805 13.1664C5.737 13.1504 5.7761 13.1331 5.81515 13.1149C5.04145 13.4301 4.74704 13.4586 4.67085 14.084Z" fill="#AF7766"/>
<path class="d" d="M3.62308 11.8483C3.57084 11.5349 3.67448 11.1886 3.85629 11.0145C3.88321 10.9875 3.91978 10.9979 3.93811 11.0376C3.95856 11.0813 3.94685 11.1436 3.91423 11.1657C3.87271 11.1943 3.83431 11.2296 3.79994 11.275C3.72946 11.3668 3.67957 11.4923 3.656 11.6284C3.64399 11.6977 3.63904 11.7704 3.64345 11.8431C3.6446 11.8613 3.62619 11.8665 3.62308 11.8483Z" fill="#E4F7FE"/>
<path class="d" d="M4.44204 12.5746C4.32623 12.3011 4.35155 11.9242 4.48743 11.6747C4.50728 11.6365 4.54424 11.6294 4.57001 11.6588C4.59868 11.6909 4.60074 11.7554 4.57443 11.7915C4.54104 11.8379 4.51207 11.8893 4.48888 11.9483C4.44128 12.0682 4.42044 12.2104 4.42683 12.3507C4.43002 12.4221 4.44075 12.4934 4.46029 12.5604C4.46523 12.5772 4.44888 12.5905 4.44204 12.5746Z" fill="#E4F7FE"/>
<path class="b" d="M8.765 9.4867C9.08215 9.38355 9.27735 9.736 9.3675 10.1941L9.7215 7.69645C9.50385 7.99455 9.4657 8.2381 9.2264 8.67245C9.1346 8.8391 9.01335 8.9338 8.8672 8.98135C8.60985 9.0652 8.34045 8.8355 8.254 8.2525C8.0998 7.21275 8.74505 6.0397 9.76595 5.7074C10.0111 5.62765 10.2765 5.58435 10.4964 5.58605C9.77835 3.66739 9.3409 3.53548 9.14995 2.4368C9.06855 1.96839 9.22555 1.46631 9.5384 1.36459C10.3935 1.08622 10.9683 3.13602 11.4859 5.52715C11.4755 5.23405 11.4691 4.85023 11.4528 4.61445C11.3358 2.93009 10.9324 2.04466 11.0903 1.07642C11.167 0.606215 11.4968 0.364918 11.8093 0.468557C12.5593 0.717065 12.6094 2.62064 12.4695 4.70581C12.4507 4.98586 12.4236 5.6462 12.3987 5.93945C12.4701 5.6764 12.5874 5.0956 12.6383 4.87794C13.0127 3.27819 12.9318 2.58076 13.2807 1.87602C13.4738 1.48602 13.8714 1.42711 14.0848 1.62751C14.7338 2.23718 14.2545 3.85631 13.5329 5.6585C13.4519 5.8606 13.267 6.2882 13.1794 6.49615C13.2806 6.3529 13.4969 5.9997 13.5799 5.87275C14.3757 4.65737 14.3523 4.37113 14.7015 4.045C14.9449 3.81767 15.3613 3.82319 15.5573 4.28821C15.9055 5.11505 15.388 5.9629 14.2542 7.11385C14.2542 7.11385 14.2538 7.1143 14.2536 7.1145C14.248 7.12015 14.2423 7.1258 14.2368 7.1315C13.8304 7.55845 13.7223 7.8847 13.579 8.92145C13.43 9.9995 13.3637 10.9838 13.4049 12.6167C13.4301 13.6182 13.9048 14.7576 12.6335 15.1715C11.362 15.5854 11.326 14.9739 11.054 14.2339C10.7821 13.4939 10.6915 13.3624 10.3017 13.166C9.4516 12.816 8.552 11.9369 8.37945 10.7737C8.2581 9.9551 8.4522 9.58855 8.765 9.4867Z" fill="#C18874"/>
<path class="c" d="M11.4066 12.2774C10.5212 12.5656 9.65696 11.8122 9.43641 10.3251C9.41881 10.2067 9.40636 10.09 9.39861 9.97524L9.61731 8.43169C9.84116 7.87634 10.215 7.47809 10.6727 7.32909C11.5581 7.04079 12.4222 7.79419 12.6428 9.28129C12.8634 10.7684 12.292 11.9892 11.4066 12.2774Z" fill="#AF7766"/>
<path class="a" d="M9.91744 7.76834C9.74214 7.61434 9.60704 7.33949 9.66849 7.02689C9.68709 6.92979 9.72459 6.83934 9.77614 6.76959C9.78944 6.75189 9.77509 6.71914 9.75874 6.73029C9.59344 6.83594 9.51154 7.12984 9.54439 7.38489C9.57319 7.63859 9.70149 7.86634 9.87294 7.92019C9.93569 7.94299 9.97104 7.81994 9.91744 7.76834Z" fill="white"/>
<path class="d" d="M10.6782 6.96822C10.6286 6.81627 10.6145 6.64017 10.6407 6.47547C10.6674 6.31212 10.7286 6.14056 10.8323 6.05956C10.8396 6.05426 10.8427 6.04121 10.8391 6.03041C10.8357 6.02001 10.8281 6.01656 10.8211 6.01881C10.7952 6.02261 10.7699 6.03526 10.7462 6.05146C10.643 6.12716 10.5697 6.26921 10.5287 6.42751C10.4745 6.63556 10.4803 6.89072 10.5939 7.05272C10.6347 7.11522 10.7022 7.04652 10.6782 6.96822Z" fill="#E4F7FE"/>
<path class="a" d="M11.2962 11.9118C12.1816 11.6236 12.7351 10.2823 12.5325 8.91584C12.3299 7.54939 11.4478 6.67529 10.5624 6.96344C9.677 7.25159 9.12345 8.59294 9.3261 9.95939C9.5287 11.3258 10.4107 12.2 11.2962 11.9118Z" fill="white"/>
<path class="d" d="M11.0803 11.6053C11.8891 11.342 12.411 10.227 12.2095 8.86859C12.008 7.51014 11.2187 6.82204 10.4099 7.08529C10.2601 7.13409 10.1201 7.21214 9.99275 7.31544C10.1609 7.15144 10.3529 7.03079 10.5626 6.96254C11.448 6.67424 12.3122 7.42764 12.5328 8.91474C12.7534 10.4018 12.1819 11.6225 11.2965 11.9107C10.5129 12.1659 9.74585 11.6048 9.427 10.4414C9.74475 11.3824 10.4057 11.8248 11.0803 11.6053Z" fill="#E4F7FE"/>
<path class="d" d="M12.3825 8.76221C12.6943 8.83146 12.9728 8.33481 12.8561 7.89401C12.8412 7.83641 12.8191 7.78316 12.7911 7.73831C12.7789 7.71846 12.7571 7.73921 12.7644 7.76376C12.7923 7.85851 12.8018 7.96386 12.7922 8.06376C12.7625 8.38641 12.5637 8.55616 12.3614 8.59131C12.2976 8.60676 12.2973 8.74011 12.3604 8.75691L12.3825 8.76221Z" fill="#E4F7FE"/>
<path class="d" d="M11.7033 7.44991C11.9699 7.39236 12.1071 6.83436 11.9827 6.50466C11.974 6.48226 11.9633 6.46126 11.9513 6.44301C11.9458 6.43221 11.9351 6.42916 11.9283 6.43931C11.9237 6.44586 11.9227 6.45576 11.9252 6.46386C11.9369 6.50251 11.9436 6.54496 11.9461 6.58811C11.9541 6.71746 11.9325 6.85036 11.8938 6.96526C11.8555 7.07906 11.7973 7.17751 11.7264 7.24836C11.703 7.27156 11.6783 7.29186 11.6529 7.30956C11.6003 7.34751 11.6237 7.46421 11.6814 7.45421L11.7033 7.44991Z" fill="#E4F7FE"/>
<path class="d" d="M12.4303 10.0556L13.0501 10.0911C13.0847 10.0925 13.0922 10.0196 13.0588 10.0059L12.4594 9.76915C12.407 9.7484 12.3531 9.7946 12.3391 9.87245C12.3223 9.9612 12.3683 10.0531 12.4303 10.0556Z" fill="#E4F7FE"/>
<path class="c" d="M13.58 5.87295C13.9628 5.28815 14.156 4.91845 14.2924 4.65597C14.293 4.65473 14.2937 4.6535 14.2943 4.65226C14.3166 4.60979 14.5309 4.21371 14.7241 4.31149C14.8216 4.36094 14.8687 4.5066 14.8222 4.74125C14.6591 5.5643 13.1794 6.49635 13.1794 6.49635C13.2806 6.35305 13.497 5.9999 13.58 5.87295Z" fill="#AF7766"/>
<g opacity="0.5">
<path class="e" d="M12.3993 5.92281L12.4007 5.91574C12.4005 5.91765 12.4004 5.91935 12.4002 5.92127L12.3993 5.92281Z" fill="#58595B"/>
</g>
<path class="c" d="M11.0923 2.08282C11.1009 1.86056 11.1397 1.58456 11.2701 1.46459C11.3826 1.36106 11.5186 1.41029 11.6382 1.6695C12.0579 2.57916 11.4859 5.5271 11.4859 5.5271C11.4756 5.234 11.4692 4.8502 11.4529 4.61442C11.3761 3.50988 11.1762 2.74892 11.0923 2.08282Z" fill="#AF7766"/>
<path class="c" d="M10.4966 5.58624C10.8602 5.58204 11.2528 5.64325 11.2528 5.64325C11.2528 5.64325 10.4636 4.67207 10.4966 5.58624Z" fill="#AF7766"/>
<path class="c" d="M11.8264 15.2983C13.0665 15.2609 12.9032 14.2451 13.0803 11.722C13.2574 9.19891 13.7459 8.00166 13.7459 8.00156C13.6831 8.23506 13.6336 8.52681 13.5791 8.92176C13.4302 9.99986 13.3639 10.9841 13.405 12.6171C13.4302 13.6186 13.9049 14.758 12.6336 15.1719C12.2791 15.2873 12.0207 15.3228 11.8264 15.2983Z" fill="#AF7766"/>
<path class="c" d="M11.329 14.084C11.4195 14.8274 11.5167 15.2609 11.8264 15.2983C11.3236 15.2347 11.2502 14.7679 11.0541 14.2343C10.7822 13.4944 10.6915 13.3627 10.3017 13.1664C10.2628 13.1504 10.2237 13.1331 10.1846 13.1149C10.9583 13.4301 11.2528 13.4586 11.329 14.084Z" fill="#AF7766"/>
<path class="d" d="M12.3767 11.8483C12.429 11.5349 12.3253 11.1886 12.1435 11.0145C12.1166 10.9875 12.08 10.9979 12.0617 11.0376C12.0412 11.0813 12.053 11.1436 12.0856 11.1657C12.1271 11.1943 12.1655 11.2296 12.1999 11.275C12.2704 11.3668 12.3202 11.4923 12.3438 11.6284C12.3558 11.6977 12.3608 11.7704 12.3564 11.8431C12.3552 11.8613 12.3736 11.8665 12.3767 11.8483Z" fill="#E4F7FE"/>
<path class="d" d="M11.5578 12.5746C11.6736 12.3011 11.6483 11.9242 11.5124 11.6747C11.4926 11.6365 11.4556 11.6294 11.4298 11.6588C11.4012 11.6909 11.3991 11.7554 11.4254 11.7915C11.4588 11.8379 11.4878 11.8893 11.511 11.9483C11.5586 12.0682 11.5794 12.2104 11.573 12.3507C11.5698 12.4221 11.5591 12.4934 11.5395 12.5604C11.5346 12.5772 11.551 12.5905 11.5578 12.5746Z" fill="#E4F7FE"/>
<path class="f" d="M5.11415 10.7068C5.6336 10.7068 6.05475 10.0569 6.05475 9.25521C6.05475 8.45346 5.6336 7.80356 5.11415 7.80356C4.59464 7.80356 4.17352 8.45346 4.17352 9.25521C4.17352 10.0569 4.59464 10.7068 5.11415 10.7068Z" fill="#A7FECD"/>
<g style="mix-blend-mode:multiply" opacity="0.75">
<path class="g" d="M5.82575 9.2321C5.82575 9.36725 5.659 9.45245 5.6316 9.5643C5.60135 9.688 5.68645 9.915 5.62955 10.0043C5.5708 10.0965 5.413 9.982 5.3336 10.0307C5.25425 10.0794 5.2026 10.3255 5.1141 10.3255C5.0256 10.3255 4.97106 10.0776 4.89456 10.0307C4.81518 9.982 4.6574 10.0965 4.59862 10.0043C4.54174 9.9151 4.62683 9.688 4.59657 9.5643C4.56919 9.45245 4.40244 9.36715 4.40244 9.2321C4.40244 9.097 4.56919 9.01175 4.59657 8.8999C4.62683 8.7762 4.54174 8.5492 4.59862 8.45985C4.6574 8.3677 4.81518 8.4822 4.89456 8.4335C4.97395 8.38485 5.0256 8.1387 5.1141 8.1387C5.2026 8.1387 5.2571 8.38665 5.3336 8.4335C5.413 8.4822 5.5708 8.3677 5.62955 8.45985C5.68645 8.5491 5.60135 8.7762 5.6316 8.8999C5.659 9.01175 5.82575 9.097 5.82575 9.2321Z" fill="#73D6FA"/>
</g>
<path class="h" d="M5.11415 9.80921C5.3589 9.80921 5.55735 9.50301 5.55735 9.12531C5.55735 8.74756 5.3589 8.44141 5.11415 8.44141C4.86934 8.44141 4.6709 8.74756 4.6709 9.12531C4.6709 9.50301 4.86934 9.80921 5.11415 9.80921Z" fill="#331546"/>
<path class="a" d="M5.61495 9.18761C5.78645 9.18761 5.9255 8.97306 5.9255 8.70836C5.9255 8.44371 5.78645 8.22916 5.61495 8.22916C5.44345 8.22916 5.3044 8.44371 5.3044 8.70836C5.3044 8.97306 5.44345 9.18761 5.61495 9.18761Z" fill="white"/>
<path class="a" d="M5.11415 9.63534C4.84141 9.58984 4.84262 9.59164 4.81183 9.18744C4.78111 9.59154 4.78232 9.58974 4.50949 9.63534C4.78225 9.68089 4.78103 9.67909 4.81183 10.0832C4.84255 9.67919 4.84133 9.68099 5.11415 9.63534Z" fill="white"/>
<path class="f" d="M10.8857 10.7068C11.4052 10.7068 11.8263 10.0569 11.8263 9.25521C11.8263 8.45346 11.4052 7.80356 10.8857 7.80356C10.3662 7.80356 9.9451 8.45346 9.9451 9.25521C9.9451 10.0569 10.3662 10.7068 10.8857 10.7068Z" fill="#A7FECD"/>
<g style="mix-blend-mode:multiply" opacity="0.75">
<path class="g" d="M11.5974 9.2321C11.5974 9.36725 11.4306 9.45245 11.4032 9.5643C11.373 9.688 11.4581 9.915 11.4012 10.0043C11.3424 10.0965 11.1846 9.982 11.1052 10.0307C11.0259 10.0794 10.9742 10.3255 10.8857 10.3255C10.7972 10.3255 10.7427 10.0776 10.6662 10.0307C10.5868 9.982 10.429 10.0965 10.3702 10.0043C10.3134 9.9151 10.3985 9.688 10.3682 9.5643C10.3408 9.45245 10.1741 9.36715 10.1741 9.2321C10.1741 9.097 10.3408 9.01175 10.3682 8.8999C10.3985 8.7762 10.3134 8.5492 10.3702 8.45985C10.429 8.3677 10.5868 8.4822 10.6662 8.4335C10.7456 8.38485 10.7972 8.1387 10.8857 8.1387C10.9742 8.1387 11.0287 8.38665 11.1052 8.4335C11.1846 8.4822 11.3424 8.3677 11.4012 8.45985C11.4581 8.5491 11.373 8.7762 11.4032 8.8999C11.4306 9.01175 11.5974 9.097 11.5974 9.2321Z" fill="#73D6FA"/>
</g>
<path class="h" d="M10.8857 9.80921C11.1305 9.80921 11.3289 9.50301 11.3289 9.12531C11.3289 8.74756 11.1305 8.44141 10.8857 8.44141C10.6409 8.44141 10.4424 8.74756 10.4424 9.12531C10.4424 9.50301 10.6409 9.80921 10.8857 9.80921Z" fill="#331546"/>
<path class="a" d="M11.3866 9.18761C11.5581 9.18761 11.6971 8.97306 11.6971 8.70836C11.6971 8.44371 11.5581 8.22916 11.3866 8.22916C11.2151 8.22916 11.076 8.44371 11.076 8.70836C11.076 8.97306 11.2151 9.18761 11.3866 9.18761Z" fill="white"/>
<path class="a" d="M10.8858 9.63534C10.613 9.58984 10.6142 9.59164 10.5834 9.18744C10.5527 9.59154 10.5539 9.58974 10.2811 9.63534C10.5538 9.68089 10.5526 9.67909 10.5834 10.0832C10.6141 9.67919 10.6129 9.68099 10.8858 9.63534Z" fill="white"/>
<path class="c" d="M3.36159 4.87807C3.12191 3.85419 3.06876 3.19991 2.97014 2.67687C2.9163 2.52209 2.83532 2.37474 2.71921 2.35255C2.59633 2.32901 2.49337 2.44898 2.45938 2.73838C2.34532 3.70887 3.492 5.73345 3.59336 5.91005C3.52142 5.6353 3.41071 5.08784 3.36159 4.87807Z" fill="#AF7766"/>
<path class="c" d="M12.6384 4.87807C12.8781 3.85419 12.9312 3.19991 13.0298 2.67687C13.0837 2.52209 13.1646 2.37474 13.2808 2.35255C13.4036 2.32901 13.5066 2.44898 13.5406 2.73838C13.6546 3.70887 12.508 5.73345 12.4066 5.91005C12.4785 5.6353 12.5893 5.08784 12.6384 4.87807Z" fill="#AF7766"/>
</g>
<defs>
<clipPath id="clip0_502_377">
<rect width="16" height="16" fill="white"/>
</clipPath>
</defs>
</svg>
