<svg width="32" height="32" viewBox="0 0 32 32" fill="none" xmlns="http://www.w3.org/2000/svg">
<style>
    @media (prefers-color-scheme: dark) {
        .a { fill: black }
        .b { fill: #8c3a1d }
        .c { fill: #7b351c }
        .d { fill: #060505 }
        .e { fill: #424345 }
        .f { fill: #20c367 }
        .g { fill: #0d87b3 }
        .h { fill: #290a3d }

        @media (color-gamut: p3) {
            .a { fill: oklch(55% 0.23 146) }
            .b { fill: oklch(45.55% 0.119 39.14) }
            .c { fill: oklch(41.98% 0.105 39.52) }
            .d { fill: oklch(11.68% 0.003 17.53) }
            .e { fill: oklch(38.26% 0.004 264.52) }
            .f { fill: oklch(86.05% 0.167 155.57) }
            .h { fill: oklch(22.9% 0.093 308.4) }
        }
    }
</style>
<path class="a" d="M31.6758 8.19135C31.4171 7.57718 31.0076 7.1482 30.5228 6.98373C30.0948 6.83864 29.6308 6.90555 29.2316 7.15969C29.2531 7.05583 29.273 6.95331 29.2914 6.85238C29.4571 5.94464 29.4943 5.17456 29.4051 4.49843C29.2947 3.66188 28.9836 2.98214 28.505 2.53267C28.1408 2.19043 27.6562 2.06449 27.176 2.1875C26.661 2.31931 26.2176 2.71449 25.9276 3.3005C25.81 3.53796 25.7127 3.77318 25.6299 4.01042C25.6226 3.93833 25.6149 3.86735 25.6068 3.79729C25.496 2.8384 25.3142 2.08116 25.0513 1.48231C24.7257 0.740616 24.267 0.253513 23.725 0.0739474C23.2443 -0.0853411 22.747 0.0151436 22.325 0.356701C21.8669 0.727548 21.5481 1.34037 21.4271 2.08274C21.3518 2.54461 21.3266 2.99025 21.3358 3.4323C21.1076 3.01819 20.8725 2.6861 20.6262 2.42903C20.0841 1.86262 19.4768 1.66751 18.8703 1.86487C18.4109 2.01447 18.0196 2.4297 17.7688 3.03396C17.4924 3.70018 17.4122 4.53402 17.5491 5.32145C17.7895 6.70526 18.1966 7.45213 18.7122 8.39795C19.001 8.92786 19.3378 9.54586 19.729 10.4363C19.5926 10.4696 19.4575 10.5077 19.3257 10.5507C18.2003 10.9171 17.2107 11.7561 16.5396 12.913C16.3177 13.2956 16.1373 13.7002 16.0002 14.1222C15.863 13.7004 15.6826 13.2956 15.4607 12.913C14.7895 11.7561 13.8 10.9173 12.6746 10.5507C12.5428 10.5079 12.4076 10.4696 12.2713 10.4363C12.6625 9.54586 12.9993 8.92763 13.2881 8.39795C13.8035 7.45213 14.2108 6.70526 14.4512 5.32145C14.5881 4.53402 14.508 3.70018 14.2315 3.03396C13.9807 2.4297 13.5896 2.01447 13.13 1.86487C12.5235 1.66751 11.9162 1.86262 11.3741 2.42903C11.128 2.6861 10.8929 3.01819 10.6645 3.4323C10.6737 2.99025 10.6485 2.54461 10.5732 2.08274C10.4522 1.34059 10.1333 0.727548 9.67535 0.356701C9.25333 0.0149183 8.75604 -0.0855664 8.27531 0.0739474C7.73315 0.253513 7.27448 0.740616 6.94904 1.48231C6.68609 2.08139 6.50436 2.83863 6.39349 3.79729C6.38543 3.86713 6.37768 3.93833 6.37038 4.01042C6.2878 3.77318 6.19031 3.53796 6.07276 3.3005C5.78259 2.71449 5.33928 2.31931 4.82434 2.1875C4.34393 2.06471 3.85956 2.19043 3.49533 2.53267C3.01673 2.98237 2.70558 3.66211 2.59517 4.49843C2.5059 5.17456 2.54316 5.94464 2.70893 6.85238C2.72733 6.95331 2.74725 7.0556 2.76869 7.15969C2.36964 6.90533 1.9055 6.83841 1.47755 6.98373C0.992718 7.1482 0.58317 7.57718 0.324484 8.19135C0.063669 8.80935 -0.0405049 9.46566 0.0140913 10.142C0.0633649 10.7517 0.237343 11.3508 0.546063 11.9739C1.02237 12.9349 1.82064 13.9584 3.1346 15.292C3.13551 15.2929 3.13642 15.2938 3.13749 15.2949C3.13825 15.2958 3.13916 15.2967 3.14007 15.2976L3.15148 15.3091C3.15452 15.312 3.15756 15.3152 3.15999 15.3176C3.41625 15.5869 3.95095 16.3953 4.2066 18.0607C4.5801 20.4951 4.74724 22.4054 4.42164 26.4989C4.35001 27.3988 4.20295 28.4048 4.46285 29.3625C4.76397 30.4715 5.47266 31.1935 6.62937 31.57C7.22643 31.7645 7.72646 31.8618 8.15259 31.8618C8.60213 31.8618 8.9691 31.7534 9.28056 31.5365C9.91868 31.0917 10.1876 30.2991 10.4249 29.5998C10.4739 29.4556 10.5246 29.3062 10.5778 29.1613C11.0588 27.8523 11.1212 27.8088 11.6617 27.5367C12.6368 27.1309 13.5815 26.4347 14.3236 25.5743C15.2229 24.5318 15.802 23.2816 15.9982 21.9589C15.9988 21.9544 15.9994 21.9501 16 21.9456C16.0006 21.9501 16.0012 21.9544 16.0018 21.9589C16.198 23.2816 16.777 24.5318 17.6764 25.5743C18.4187 26.4347 19.3632 27.1309 20.3384 27.5367C20.8787 27.8088 20.9412 27.8525 21.4222 29.1613C21.4754 29.3062 21.5261 29.4553 21.5751 29.5998C21.8125 30.2991 22.0813 31.0917 22.7195 31.5365C23.0309 31.7534 23.3979 31.8618 23.8474 31.8618C24.2735 31.8618 24.7736 31.7645 25.3706 31.57C26.5274 31.1935 27.236 30.4715 27.5372 29.3625C27.7972 28.405 27.65 27.399 27.5784 26.4989C27.2528 22.4054 27.4199 20.4949 27.7934 18.0607C28.0489 16.3953 28.5838 15.5869 28.84 15.3176C28.8424 15.3152 28.8455 15.3122 28.8485 15.3091L28.8599 15.2976C28.8608 15.2967 28.8618 15.2958 28.8625 15.2949C28.8634 15.294 28.8643 15.2931 28.8654 15.292C30.1794 13.9582 30.9776 12.9349 31.4539 11.9739C31.7627 11.351 31.9366 10.7517 31.9859 10.142C32.0405 9.46566 31.9362 8.80935 31.676 8.19135H31.6758Z" fill="white"/>
<path class="b" d="M14.4696 18.9734C13.8353 18.7671 13.4449 19.472 13.2645 20.3883L12.5566 15.3929C12.9919 15.9891 13.0682 16.4762 13.5468 17.3449C13.7304 17.6782 13.9729 17.8676 14.2652 17.9627C14.7799 18.1304 15.3187 17.671 15.4916 16.505C15.8 14.4255 14.5095 12.0794 12.4677 11.4148C11.9774 11.2553 11.4464 11.1687 11.0066 11.1721C12.4429 7.33479 13.3178 7.07096 13.6996 4.87359C13.8625 3.93678 13.5485 2.93261 12.9228 2.72917C11.2126 2.17244 10.0628 6.27204 9.02779 11.0543C9.04847 10.4681 9.06124 9.70046 9.09394 9.2289C9.32799 5.86019 10.1348 4.08931 9.8189 2.15284C9.66561 1.21243 9.00589 0.729836 8.38084 0.937114C6.88089 1.43413 6.78067 5.24128 7.0605 9.41162C7.09806 9.97172 7.15235 11.2924 7.20223 11.8789C7.05928 11.3528 6.82477 10.1912 6.72303 9.75588C5.9742 6.55637 6.13586 5.16152 5.43812 3.75204C5.05199 2.97204 4.25677 2.85421 3.82989 3.25502C2.53189 4.47435 3.4906 7.71262 4.93383 11.317C5.09564 11.7212 5.46549 12.5764 5.64069 12.9923C5.43827 12.7058 5.00576 11.9994 4.83969 11.7455C3.24819 9.31474 3.29487 8.74225 2.59653 8.09C2.10972 7.63534 1.27694 7.64638 0.885033 8.57642C0.188513 10.2301 1.22356 11.9258 3.49105 14.2277C3.49105 14.2277 3.49197 14.2286 3.49242 14.229C3.50353 14.2403 3.51493 14.2516 3.52603 14.263C4.33874 15.1169 4.555 15.7694 4.84151 17.8429C5.13944 19.999 5.27205 21.9675 5.18977 25.2334C5.13928 27.2364 4.18986 29.5153 6.73261 30.3431C9.27552 31.1708 9.34761 29.9479 9.89144 28.4679C10.4353 26.9881 10.6166 26.7247 11.3961 26.332C13.0964 25.632 14.8956 23.8737 15.2407 21.5473C15.4834 19.9102 15.0951 19.1767 14.4695 18.973L14.4696 18.9734Z" fill="#C18874"/>
<path class="c" d="M9.18655 24.5548C10.9574 25.1313 12.6857 23.6245 13.1269 20.6503C13.162 20.4135 13.187 20.1801 13.2025 19.9505L12.7651 16.8634C12.3174 15.7527 11.5698 14.9562 10.6544 14.6582C8.88361 14.0816 7.15524 15.5884 6.71406 18.5626C6.27288 21.5368 7.41575 23.9782 9.18655 24.5545V24.5548Z" fill="#AF7766"/>
<path class="a" d="M12.1648 15.5367C12.5153 15.2287 12.7856 14.679 12.6627 14.0538C12.6254 13.8596 12.5505 13.6787 12.4474 13.5392C12.4207 13.5038 12.4495 13.4383 12.4822 13.4606C12.8128 13.6719 12.9766 14.2597 12.9109 14.7698C12.8532 15.2772 12.5967 15.7327 12.2538 15.8404C12.1283 15.886 12.0574 15.6399 12.1646 15.5367H12.1648Z" fill="white"/>
<path class="d" d="M10.6435 13.9364C10.7426 13.6325 10.7709 13.2803 10.7184 12.9509C10.6651 12.6242 10.5426 12.2811 10.3352 12.1191C10.3206 12.1085 10.3145 12.0824 10.3217 12.0608C10.3284 12.04 10.3436 12.0331 10.3576 12.0376C10.4094 12.0452 10.4601 12.0705 10.5075 12.1029C10.7139 12.2543 10.8605 12.5384 10.9424 12.855C11.0509 13.2711 11.0393 13.7814 10.812 14.1054C10.7304 14.2304 10.5956 14.093 10.6436 13.9364H10.6435Z" fill="#E4F7FE"/>
<path class="a" d="M13.3468 19.9161C13.752 17.1832 12.645 14.5005 10.8741 13.9242C9.10319 13.3478 7.33909 15.0961 6.93384 17.829C6.52859 20.5619 7.63566 23.2446 9.40654 23.8209C11.1774 24.3972 12.9415 22.649 13.3468 19.9161Z" fill="white"/>
<path class="d" d="M9.83928 23.2106C8.22162 22.6841 7.17775 20.4541 7.58076 17.7372C7.98377 15.0203 9.5625 13.6441 11.18 14.1706C11.4796 14.2682 11.7596 14.4243 12.0143 14.6309C11.6781 14.3029 11.2941 14.0616 10.8746 13.9251C9.10383 13.3485 7.37545 14.8553 6.93427 17.8295C6.49309 20.8037 7.63596 23.2451 9.40677 23.8214C10.9741 24.3318 12.5081 23.2097 13.1458 20.8828C12.5102 22.7648 11.1884 23.6493 9.83928 23.2102V23.2106Z" fill="#E4F7FE"/>
<path class="d" d="M7.23456 17.5244C6.61088 17.6629 6.05397 16.6696 6.28741 15.788C6.31707 15.6728 6.36132 15.5663 6.41744 15.4766C6.44177 15.4369 6.48527 15.4784 6.47082 15.5275C6.41485 15.717 6.39599 15.9277 6.41516 16.1275C6.47447 16.7728 6.87215 17.1123 7.27684 17.1826C7.40428 17.2135 7.40504 17.4802 7.27881 17.5138L7.23441 17.5244H7.23456Z" fill="#E4F7FE"/>
<path class="d" d="M8.59312 14.8998C8.05993 14.7847 7.78543 13.6687 8.03423 13.0093C8.05172 12.9645 8.07301 12.9225 8.09704 12.886C8.10814 12.8644 8.12943 12.8583 8.14312 12.8786C8.15224 12.8917 8.15422 12.9115 8.14935 12.9277C8.12578 13.005 8.11255 13.0899 8.10738 13.1762C8.09141 13.4349 8.13475 13.7007 8.21201 13.9305C8.28866 14.1581 8.405 14.355 8.54689 14.4967C8.59373 14.5431 8.643 14.5837 8.69379 14.6191C8.79903 14.695 8.75219 14.9284 8.63692 14.9084L8.59312 14.9V14.8998Z" fill="#E4F7FE"/>
<path class="d" d="M7.13913 20.1112L5.89954 20.1822C5.83034 20.1849 5.81544 20.0391 5.8822 20.0117L7.08088 19.5383C7.18582 19.4968 7.29364 19.5892 7.32162 19.7449C7.35523 19.9224 7.26323 20.1061 7.13913 20.1112Z" fill="#E4F7FE"/>
<path class="c" d="M4.83985 11.7459C4.07413 10.5763 3.6877 9.83691 3.41503 9.31195C3.41381 9.30947 3.41244 9.307 3.41122 9.30452C3.36666 9.21958 2.93795 8.42742 2.55167 8.62298C2.35656 8.72189 2.26242 9.0132 2.35534 9.48251C2.68155 11.1286 5.641 12.9927 5.641 12.9927C5.43859 12.7061 5.00607 11.9998 4.84 11.7459H4.83985Z" fill="#AF7766"/>
<g opacity="0.5">
<path class="e" d="M7.20098 11.8448L7.19855 11.8315C7.19885 11.8351 7.19916 11.8383 7.19946 11.8419L7.20113 11.8448H7.20098Z" fill="#58595B"/>
</g>
<path class="c" d="M9.81525 4.16563C9.79791 3.72111 9.72035 3.16912 9.45969 2.92917C9.23461 2.72212 8.96254 2.82057 8.72332 3.33899C7.884 5.15831 9.02794 11.0542 9.02794 11.0542C9.04862 10.468 9.06139 9.70039 9.09409 9.22884C9.24754 7.01975 9.64735 5.49761 9.81525 4.1654V4.16563Z" fill="#AF7766"/>
<path class="c" d="M11.0066 11.1725C10.2793 11.1641 9.49414 11.2865 9.49414 11.2865C9.49414 11.2865 11.0726 9.34415 11.0066 11.1725Z" fill="#AF7766"/>
<path class="c" d="M8.34689 30.5965C5.86679 30.5217 6.1933 28.4902 5.83911 23.4439C5.48492 18.3978 4.50796 16.0033 4.50781 16.0031C4.63343 16.4701 4.73243 17.0536 4.84147 17.8435C5.1394 19.9997 5.27201 21.9681 5.18973 25.2341C5.13924 27.2371 4.18982 29.516 6.73257 30.3437C7.44141 30.5745 7.95817 30.6459 8.34674 30.5968L8.34689 30.5965Z" fill="#AF7766"/>
<path class="c" d="M9.3417 28.1681C9.16058 29.6548 8.96622 30.5218 8.3468 30.5966C9.35235 30.4695 9.49925 29.5359 9.89147 28.4686C10.4353 26.9888 10.6166 26.7255 11.3961 26.3328C11.474 26.3008 11.5522 26.2663 11.6303 26.2298C10.0829 26.8602 9.49408 26.917 9.3417 28.1678V28.1681Z" fill="#AF7766"/>
<path class="d" d="M7.24616 23.6965C7.14168 23.0697 7.34896 22.3771 7.71258 22.029C7.76642 21.9749 7.83957 21.9957 7.87622 22.0752C7.91713 22.1626 7.89371 22.2872 7.82847 22.3314C7.74543 22.3886 7.66863 22.4591 7.59989 22.5499C7.45892 22.7335 7.35915 22.9845 7.31201 23.2567C7.28798 23.3953 7.27809 23.5408 7.28691 23.6861C7.2892 23.7226 7.25239 23.733 7.24616 23.6965Z" fill="#E4F7FE"/>
<path class="d" d="M8.88408 25.1492C8.65246 24.6022 8.7031 23.8483 8.97487 23.3493C9.01456 23.2729 9.08847 23.2587 9.14002 23.3175C9.19736 23.3817 9.20147 23.5108 9.14885 23.5829C9.08208 23.6757 9.02414 23.7785 8.97776 23.8965C8.88256 24.1363 8.84089 24.4208 8.85366 24.7013C8.86005 24.8442 8.88149 24.9868 8.92058 25.1208C8.93046 25.1544 8.89776 25.1812 8.88408 25.1494V25.1492Z" fill="#E4F7FE"/>
<path class="b" d="M17.53 18.9734C18.1643 18.7671 18.5547 19.472 18.735 20.3883L19.443 15.3929C19.0077 15.9891 18.9314 16.4762 18.4528 17.3449C18.2692 17.6782 18.0267 17.8676 17.7344 17.9627C17.2197 18.1304 16.6809 17.671 16.508 16.505C16.1996 14.4255 17.4901 12.0794 19.5319 11.4148C20.0222 11.2553 20.5531 11.1687 20.9929 11.1721C19.5567 7.33479 18.6818 7.07096 18.2999 4.87359C18.1371 3.93678 18.4511 2.93261 19.0768 2.72917C20.787 2.17244 21.9367 6.27204 22.9718 11.0543C22.9511 10.4681 22.9383 9.70046 22.9056 9.2289C22.6716 5.86019 21.8648 4.08931 22.1807 2.15284C22.334 1.21243 22.9937 0.729836 23.6187 0.937114C25.1187 1.43413 25.2189 5.24128 24.9391 9.41162C24.9015 9.97172 24.8472 11.2924 24.7974 11.8789C24.9403 11.3528 25.1748 10.1912 25.2766 9.75588C26.0254 6.55637 25.8637 5.16152 26.5615 3.75204C26.9476 2.97204 27.7428 2.85421 28.1697 3.25502C29.4677 4.47435 28.509 7.71262 27.0658 11.317C26.9039 11.7212 26.5341 12.5764 26.3589 12.9923C26.5613 12.7058 26.9938 11.9994 27.1599 11.7455C28.7514 9.31474 28.7047 8.74225 29.4031 8.09C29.8899 7.63534 30.7226 7.64638 31.1146 8.57642C31.8111 10.2301 30.776 11.9258 28.5085 14.2277C28.5085 14.2277 28.5076 14.2286 28.5072 14.229C28.4961 14.2403 28.4847 14.2516 28.4736 14.263C27.6608 15.1169 27.4446 15.7694 27.1581 17.8429C26.8601 19.999 26.7275 21.9675 26.8098 25.2334C26.8603 27.2364 27.8097 29.5153 25.267 30.3431C22.7241 31.1708 22.652 29.9479 22.1081 28.4679C21.5643 26.9879 21.383 26.7247 20.6035 26.332C18.9032 25.632 17.104 23.8737 16.7589 21.5473C16.5162 19.9102 16.9045 19.1767 17.5301 18.973L17.53 18.9734Z" fill="#C18874"/>
<path class="c" d="M22.8131 24.5548C21.0423 25.1313 19.3139 23.6245 18.8728 20.6503C18.8376 20.4135 18.8127 20.1801 18.7972 19.9505L19.2346 16.8634C19.6823 15.7527 20.4299 14.9562 21.3453 14.6582C23.1161 14.0816 24.8444 15.5884 25.2856 18.5626C25.7268 21.5368 24.5839 23.9782 22.8131 24.5545V24.5548Z" fill="#AF7766"/>
<path class="a" d="M19.8349 15.5367C19.4843 15.2287 19.2141 14.679 19.337 14.0538C19.3742 13.8596 19.4492 13.6787 19.5523 13.5392C19.5789 13.5038 19.5502 13.4383 19.5175 13.4606C19.1869 13.6719 19.0231 14.2597 19.0888 14.7698C19.1464 15.2772 19.403 15.7327 19.7459 15.8404C19.8714 15.886 19.9422 15.6399 19.835 15.5367H19.8349Z" fill="white"/>
<path class="d" d="M21.3563 13.9364C21.2572 13.6325 21.2289 13.2803 21.2813 12.9509C21.3347 12.6242 21.4572 12.2811 21.6646 12.1191C21.6792 12.1085 21.6853 12.0824 21.6781 12.0608C21.6714 12.04 21.6562 12.0331 21.6422 12.0376C21.5904 12.0452 21.5397 12.0705 21.4923 12.1029C21.2859 12.2543 21.1393 12.5384 21.0573 12.855C20.9489 13.2711 20.9605 13.7814 21.1878 14.1054C21.2693 14.2304 21.4042 14.093 21.3562 13.9364H21.3563Z" fill="#E4F7FE"/>
<path class="a" d="M22.5924 23.8236C24.3633 23.2473 25.4703 20.5646 25.0651 17.8317C24.6598 15.0988 22.8957 13.3506 21.1249 13.9269C19.354 14.5032 18.2469 17.1859 18.6522 19.9188C19.0574 22.6517 20.8215 24.4 22.5924 23.8236Z" fill="white"/>
<path class="d" d="M22.1605 23.2106C23.7782 22.6841 24.822 20.4541 24.419 17.7372C24.016 15.0203 22.4373 13.6441 20.8198 14.1706C20.5202 14.2682 20.2402 14.4243 19.9855 14.6309C20.3217 14.3029 20.7057 14.0616 21.1251 13.9251C22.896 13.3485 24.6243 14.8553 25.0655 17.8295C25.5067 20.8037 24.3638 23.2451 22.593 23.8214C21.0257 24.3318 19.4917 23.2097 18.854 20.8828C19.4895 22.7648 20.8114 23.6493 22.1605 23.2102V23.2106Z" fill="#E4F7FE"/>
<path class="d" d="M24.765 17.5244C25.3887 17.6629 25.9456 16.6696 25.7122 15.788C25.6825 15.6728 25.6383 15.5663 25.5822 15.4766C25.5578 15.4369 25.5143 15.4784 25.5288 15.5275C25.5847 15.717 25.6036 15.9277 25.5844 16.1275C25.5251 16.7728 25.1274 17.1123 24.7228 17.1826C24.5953 17.2135 24.5946 17.4802 24.7208 17.5138L24.7652 17.5244H24.765Z" fill="#E4F7FE"/>
<path class="d" d="M23.4065 14.8998C23.9397 14.7847 24.2142 13.6687 23.9654 13.0093C23.9479 12.9645 23.9266 12.9225 23.9026 12.886C23.8915 12.8644 23.8702 12.8583 23.8565 12.8786C23.8474 12.8917 23.8454 12.9115 23.8503 12.9277C23.8738 13.005 23.8871 13.0899 23.8922 13.1762C23.9082 13.4349 23.8649 13.7007 23.7876 13.9305C23.711 14.1581 23.5946 14.355 23.4527 14.4967C23.4059 14.5431 23.3566 14.5837 23.3058 14.6191C23.2006 14.695 23.2474 14.9284 23.3627 14.9084L23.4065 14.9V14.8998Z" fill="#E4F7FE"/>
<path class="d" d="M24.8607 20.1112L26.1003 20.1822C26.1695 20.1849 26.1844 20.0391 26.1176 20.0117L24.9189 19.5383C24.814 19.4968 24.7062 19.5892 24.6782 19.7449C24.6446 19.9224 24.7366 20.1061 24.8607 20.1112Z" fill="#E4F7FE"/>
<path class="c" d="M27.16 11.7459C27.9257 10.5763 28.3121 9.83691 28.5848 9.31195C28.586 9.30947 28.5874 9.307 28.5886 9.30452C28.6332 9.21958 29.0619 8.42742 29.4482 8.62298C29.6433 8.72189 29.7374 9.0132 29.6445 9.48251C29.3183 11.1286 26.3588 12.9927 26.3588 12.9927C26.5612 12.7061 26.9938 11.9998 27.1598 11.7459H27.16Z" fill="#AF7766"/>
<g opacity="0.5">
<path class="e" d="M24.7987 11.8448L24.8012 11.8315C24.8009 11.8351 24.8006 11.8383 24.8003 11.8419L24.7986 11.8448H24.7987Z" fill="#58595B"/>
</g>
<path class="c" d="M22.1845 4.16563C22.2018 3.72111 22.2794 3.16912 22.5401 2.92917C22.7651 2.72212 23.0372 2.82057 23.2764 3.33899C24.1158 5.15831 22.9718 11.0542 22.9718 11.0542C22.9511 10.468 22.9384 9.70039 22.9057 9.22884C22.7522 7.01975 22.3524 5.49761 22.1845 4.1654V4.16563Z" fill="#AF7766"/>
<path class="c" d="M20.9931 11.1725C21.7203 11.1641 22.5055 11.2865 22.5055 11.2865C22.5055 11.2865 20.9271 9.34415 20.9931 11.1725Z" fill="#AF7766"/>
<path class="c" d="M23.6528 30.5965C26.1329 30.5217 25.8064 28.4902 26.1605 23.4439C26.5147 18.3978 27.4917 16.0033 27.4918 16.0031C27.3662 16.4701 27.2672 17.0536 27.1582 17.8435C26.8603 19.9997 26.7277 21.9681 26.8099 25.2341C26.8604 27.2371 27.8098 29.516 25.2671 30.3437C24.5582 30.5745 24.0415 30.6459 23.6529 30.5968L23.6528 30.5965Z" fill="#AF7766"/>
<path class="c" d="M22.658 28.1681C22.8391 29.6548 23.0334 30.5218 23.6529 30.5966C22.6473 30.4695 22.5004 29.5359 22.1082 28.4686C21.5644 26.9888 21.3831 26.7255 20.6035 26.3328C20.5257 26.3008 20.4475 26.2663 20.3693 26.2298C21.9167 26.8602 22.5056 26.917 22.658 28.1678V28.1681Z" fill="#AF7766"/>
<path class="d" d="M24.7535 23.6965C24.858 23.0697 24.6507 22.3771 24.2871 22.029C24.2333 21.9749 24.1601 21.9957 24.1235 22.0752C24.0825 22.1626 24.106 22.2872 24.1712 22.3314C24.2542 22.3886 24.331 22.4591 24.3998 22.5499C24.5408 22.7335 24.6405 22.9845 24.6877 23.2567C24.7117 23.3953 24.7216 23.5408 24.7128 23.6861C24.7105 23.7226 24.7473 23.733 24.7535 23.6965Z" fill="#E4F7FE"/>
<path class="d" d="M23.1156 25.1492C23.3473 24.6022 23.2966 23.8483 23.0248 23.3493C22.9852 23.2729 22.9112 23.2587 22.8597 23.3175C22.8024 23.3817 22.7982 23.5108 22.8509 23.5829C22.9176 23.6757 22.9756 23.7785 23.022 23.8965C23.1172 24.1363 23.1588 24.4208 23.1461 24.7013C23.1397 24.8442 23.1182 24.9868 23.0791 25.1208C23.0693 25.1544 23.102 25.1812 23.1156 25.1494V25.1492Z" fill="#E4F7FE"/>
<path class="f" d="M10.2283 21.4136C11.2672 21.4136 12.1095 20.1138 12.1095 18.5104C12.1095 16.9069 11.2672 15.6071 10.2283 15.6071C9.18929 15.6071 8.34705 16.9069 8.34705 18.5104C8.34705 20.1138 9.18929 21.4136 10.2283 21.4136Z" fill="#A7FECD"/>
<g style="mix-blend-mode:multiply" opacity="0.75">
<path class="g" d="M11.6515 18.4642C11.6515 18.7345 11.318 18.9049 11.2632 19.1286C11.2027 19.376 11.3729 19.83 11.2591 20.0086C11.1416 20.1929 10.826 19.964 10.6672 20.0614C10.5085 20.1587 10.4052 20.651 10.2282 20.651C10.0512 20.651 9.94212 20.1551 9.78912 20.0614C9.63035 19.964 9.31479 20.1929 9.19723 20.0086C9.08348 19.8302 9.25366 19.376 9.19313 19.1286C9.13838 18.9049 8.80487 18.7343 8.80487 18.4642C8.80487 18.194 9.13838 18.0235 9.19313 17.7998C9.25366 17.5524 9.08348 17.0984 9.19723 16.9197C9.31479 16.7354 9.63035 16.9644 9.78912 16.867C9.9479 16.7697 10.0512 16.2774 10.2282 16.2774C10.4052 16.2774 10.5142 16.7733 10.6672 16.867C10.826 16.9644 11.1416 16.7354 11.2591 16.9197C11.3729 17.0982 11.2027 17.5524 11.2632 17.7998C11.318 18.0235 11.6515 18.194 11.6515 18.4642Z" fill="#73D6FA"/>
</g>
<path class="h" d="M10.2283 19.6184C10.7178 19.6184 11.1147 19.006 11.1147 18.2506C11.1147 17.4951 10.7178 16.8828 10.2283 16.8828C9.73868 16.8828 9.3418 17.4951 9.3418 18.2506C9.3418 19.006 9.73868 19.6184 10.2283 19.6184Z" fill="#331546"/>
<path class="a" d="M11.2299 18.3752C11.5729 18.3752 11.851 17.9461 11.851 17.4167C11.851 16.8874 11.5729 16.4583 11.2299 16.4583C10.8869 16.4583 10.6088 16.8874 10.6088 17.4167C10.6088 17.9461 10.8869 18.3752 11.2299 18.3752Z" fill="white"/>
<path class="a" d="M10.2283 19.2707C9.68281 19.1797 9.68524 19.1833 9.62365 18.3749C9.56221 19.1831 9.56464 19.1795 9.01898 19.2707C9.56449 19.3618 9.56206 19.3582 9.62365 20.1665C9.68509 19.3584 9.68265 19.362 10.2283 19.2707Z" fill="white"/>
<path class="f" d="M21.7714 21.4136C22.8104 21.4136 23.6526 20.1138 23.6526 18.5104C23.6526 16.9069 22.8104 15.6071 21.7714 15.6071C20.7324 15.6071 19.8902 16.9069 19.8902 18.5104C19.8902 20.1138 20.7324 21.4136 21.7714 21.4136Z" fill="#A7FECD"/>
<g style="mix-blend-mode:multiply" opacity="0.75">
<path class="g" d="M23.1947 18.4642C23.1947 18.7345 22.8612 18.9049 22.8064 19.1286C22.7459 19.376 22.9161 19.83 22.8023 20.0086C22.6848 20.1929 22.3692 19.964 22.2104 20.0614C22.0517 20.1587 21.9484 20.651 21.7714 20.651C21.5944 20.651 21.4853 20.1551 21.3323 20.0614C21.1736 19.964 20.858 20.1929 20.7404 20.0086C20.6267 19.8302 20.7969 19.376 20.7363 19.1286C20.6816 18.9049 20.3481 18.7343 20.3481 18.4642C20.3481 18.194 20.6816 18.0235 20.7363 17.7998C20.7969 17.5524 20.6267 17.0984 20.7404 16.9197C20.858 16.7354 21.1736 16.9644 21.3323 16.867C21.4911 16.7697 21.5944 16.2774 21.7714 16.2774C21.9484 16.2774 22.0574 16.7733 22.2104 16.867C22.3692 16.9644 22.6848 16.7354 22.8023 16.9197C22.9161 17.0982 22.7459 17.5524 22.8064 17.7998C22.8612 18.0235 23.1947 18.194 23.1947 18.4642Z" fill="#73D6FA"/>
</g>
<path class="h" d="M21.7714 19.6184C22.261 19.6184 22.6579 19.006 22.6579 18.2506C22.6579 17.4951 22.261 16.8828 21.7714 16.8828C21.2818 16.8828 20.8849 17.4951 20.8849 18.2506C20.8849 19.006 21.2818 19.6184 21.7714 19.6184Z" fill="#331546"/>
<path class="a" d="M22.7731 18.3752C23.1161 18.3752 23.3942 17.9461 23.3942 17.4167C23.3942 16.8874 23.1161 16.4583 22.7731 16.4583C22.4301 16.4583 22.152 16.8874 22.152 17.4167C22.152 17.9461 22.4301 18.3752 22.7731 18.3752Z" fill="white"/>
<path class="a" d="M21.7715 19.2707C21.226 19.1797 21.2284 19.1833 21.1668 18.3749C21.1054 19.1831 21.1078 19.1795 20.5621 19.2707C21.1076 19.3618 21.1052 19.3582 21.1668 20.1665C21.2282 19.3584 21.2258 19.362 21.7715 19.2707Z" fill="white"/>
<path class="c" d="M6.72318 9.75615C6.24383 7.70838 6.13753 6.39983 5.94028 5.35375C5.83261 5.04419 5.67064 4.74949 5.43842 4.70511C5.19266 4.65802 4.98675 4.89796 4.91877 5.47677C4.69065 7.41774 6.984 11.4669 7.18672 11.8201C7.04285 11.2706 6.82142 10.1759 6.72318 9.75637V9.75615Z" fill="#AF7766"/>
<path class="c" d="M25.2767 9.75615C25.7561 7.70838 25.8624 6.39983 26.0596 5.35375C26.1673 5.04419 26.3292 4.74949 26.5615 4.70511C26.8072 4.65802 27.0131 4.89796 27.0811 5.47677C27.3092 7.41774 25.0159 11.4669 24.8132 11.8201C24.957 11.2706 25.1785 10.1759 25.2767 9.75637V9.75615Z" fill="#AF7766"/>
</svg>
